.
..............................Site Info...........................

 -   http://www.scenetime.com  *_*   

SceneTime is going to Close sign up on march/1, hurry up! get in before the doors are closed.

     We care to share . Join us on  http://www.scenetime.com 

    Be the first to get new release at  http://www.scenetime.com

        Seed back for speed


...................................NFO:.................................................[IMG]http://lookpic.com/O/i2/734/B4GJgE0q.jpeg[/IMG]

[IMG]http://lookpic.com/O/i2/1842/JeKN2KTQ.png[/IMG]

As Johnny Blaze hides out in Eastern Europe, he is called upon to stop the devil, who is trying to take human form
 
http://www.imdb.com/title/tt1071875/

Source: ILLUMINATI

Format                           : AVI
Format/Info                      : Audio Video Interleave
File size                        : 1.10 GiB
Duration                         : 1h 28mn
Overall bit rate                 : 1 793 Kbps
Writing library                  : VirtualDub build 33848/release

Video
ID                               : 0
Format                           : MPEG-4 Visual
Format profile                   : Advanced Simple@L5
Format settings, BVOP            : Yes
Format settings, QPel            : No
Format settings, GMC             : No warppoints
Format settings, Matrix          : Default (H.263)
Muxing mode                      : Packed bitstream
Codec ID                         : XVID
Codec ID/Hint                    : XviD
Duration                         : 1h 28mn
Bit rate                         : 1 592 Kbps
Width                            : 720 pixels
Height                           : 300 pixels
Display aspect ratio             : 2.40:1
Frame rate                       : 23.976 fps
Color space                      : YUV
Chroma subsampling               : 4:2:0
Bit depth                        : 8 bits
Scan type                        : Progressive
Bits/(Pixel*Frame)               : 0.307
Stream size                      : 1 003 MiB (89%)
Writing library                  : XviD 1.2.1 (UTC 2008-12-04)

Audio
ID                               : 1
Format                           : MPEG Audio
Format version                   : Version 1
Format profile                   : Layer 3
Mode                             : Joint stereo
Mode extension                   : MS Stereo
Codec ID                         : 55
Codec ID/Hint                    : MP3
Duration                         : 1h 28mn
Bit rate mode                    : Constant
Bit rate                         : 192 Kbps
Channel(s)                       : 2 channels
Sampling rate                    : 44.1 KHz
Stream size                      : 121 MiB (11%)
Alignment                        : Split accross interleaves
Interleave, duration             : 42 ms (1.00 video frame)
Interleave, preload duration     : 500 ms
Writing library                  : LAME3.98.2

Workdone:
First off thx to ILLUMINATI for the nice video. We started off with fixing the AR and the perspective. Faces seem a bit squished and the perspective need fixed on the upper right corner. After that did the usual filters.

Audio:
I cleaned up the noise a bit and put some audio enhancements and decreased the overall volume by 20%, was a bit loud.

Enjoy!

[IMG]http://lookpic.com/O/i2/1404/8yiQKnEa.png[/IMG]

[IMG]http://lookpic.com/O/i2/1243/64rNuOsp.jpeg[/IMG]
[IMG]http://lookpic.com/O/i2/40/LCtWGSQx.jpeg[/IMG]
[IMG]http://lookpic.com/O/i2/198/0iAtIJG.jpeg[/IMG]
[IMG]http://lookpic.com/O/i2/1843/LOd0mYz6.jpeg[/IMG]
[IMG]http://lookpic.com/O/i2/1570/RrM8afX1.jpeg[/IMG]
[IMG]http://lookpic.com/O/i2/874/iW8g21MZ.jpeg[/IMG]